<?xml version="1.0" encoding="UTF-8" standalone="no"?>
<svg
   enable-background="new 0 0 64 64"
   height="64px"
   id="Layer_1"
   version="1.1"
   viewBox="0 0 64 64"
   width="64px"
   xml:space="preserve"
   sodipodi:docname="753105_washer_laundry_machine_wash_washing_icon.svg"
   inkscape:version="1.1 (c68e22c387, 2021-05-23)"
   xmlns:inkscape="http://www.inkscape.org/namespaces/inkscape"
   xmlns:sodipodi="http://sodipodi.sourceforge.net/DTD/sodipodi-0.dtd"
   xmlns="http://www.w3.org/2000/svg"
   xmlns:svg="http://www.w3.org/2000/svg"><defs
     id="defs15" /><sodipodi:namedview
     id="namedview13"
     pagecolor="#ffffff"
     bordercolor="#999999"
     borderopacity="1"
     inkscape:pageshadow="0"
     inkscape:pageopacity="0"
     inkscape:pagecheckerboard="0"
     showgrid="false"
     inkscape:zoom="10.65625"
     inkscape:cx="31.953079"
     inkscape:cy="32"
     inkscape:window-width="1920"
     inkscape:window-height="1000"
     inkscape:window-x="-11"
     inkscape:window-y="-11"
     inkscape:window-maximized="1"
     inkscape:current-layer="Layer_1" /><g
     id="g10"
     style="fill:#000000;opacity:1"><g
       id="g6"
       style="fill:#000000"><path
         d="M36.256,41.437c-2.451,3.992-7.285,3.291-8.825,0.14c-4.063,4.414-7.377-0.145-7.377-0.145    c0.744,5.889,5.768,10.439,11.86,10.439c6.19,0,11.28-4.701,11.891-10.73C43.805,41.141,38.357,44.308,36.256,41.437z"
         fill="#241F20"
         id="path2"
         style="fill:#000000" /><path
         d="M6.888,18.287v44.036c0,0.926,0.782,1.674,1.751,1.674h46.722c0.967,0,1.75-0.748,1.75-1.674V18.287H6.888    z M31.93,54.794c-7.821,0-14.161-6.339-14.161-14.16c0-7.819,6.339-14.16,14.161-14.16c7.82,0,14.16,6.34,14.16,14.16    C46.09,48.455,39.75,54.794,31.93,54.794z"
         fill="#241F20"
         id="path4"
         style="fill:#000000" /></g><path
       d="M55.361,0.004H8.639c-0.969,0-1.751,0.809-1.751,1.808v13.259h50.223V1.812   C57.111,0.813,56.328,0.004,55.361,0.004z M16.13,10.049c-1.387,0-2.511-1.125-2.511-2.511c0-1.388,1.124-2.511,2.511-2.511   s2.511,1.123,2.511,2.511C18.642,8.924,17.518,10.049,16.13,10.049z M24.422,10.049c-1.386,0-2.511-1.125-2.511-2.511   c0-1.388,1.125-2.511,2.511-2.511s2.511,1.123,2.511,2.511C26.934,8.924,25.809,10.049,24.422,10.049z"
       fill="#241F20"
       id="path8"
       style="fill:#000000" /></g></svg>
