<?xml version="1.0" encoding="UTF-8" standalone="no"?>
<!-- Created with Inkscape (http://www.inkscape.org/) -->

<svg
   width="210mm"
   height="297mm"
   viewBox="0 0 210 297"
   version="1.1"
   id="svg5"
   inkscape:version="1.1 (c68e22c387, 2021-05-23)"
   sodipodi:docname="753105_washer_laundry_machine_wash_washing_icon_edit.svg"
   xmlns:inkscape="http://www.inkscape.org/namespaces/inkscape"
   xmlns:sodipodi="http://sodipodi.sourceforge.net/DTD/sodipodi-0.dtd"
   xmlns="http://www.w3.org/2000/svg"
   xmlns:svg="http://www.w3.org/2000/svg">
  <sodipodi:namedview
     id="namedview7"
     pagecolor="#ffffff"
     bordercolor="#999999"
     borderopacity="1"
     inkscape:pageshadow="0"
     inkscape:pageopacity="0"
     inkscape:pagecheckerboard="0"
     inkscape:document-units="mm"
     showgrid="false"
     inkscape:zoom="0.60756173"
     inkscape:cx="517.64287"
     inkscape:cy="657.54635"
     inkscape:window-width="1646"
     inkscape:window-height="847"
     inkscape:window-x="1909"
     inkscape:window-y="-11"
     inkscape:window-maximized="1"
     inkscape:current-layer="layer1" />
  <defs
     id="defs2" />
  <g
     inkscape:label="Layer 1"
     inkscape:groupmode="layer"
     id="layer1">
    <circle
       style="opacity:1;fill:#eeeeee;stroke-width:11.2175;stroke-linecap:round;stroke-linejoin:round;paint-order:markers fill stroke;fill-opacity:1"
       id="path846"
       cx="104.51612"
       cy="145.8871"
       r="99.290321" />
    <circle
       style="fill:#2a9dc9;fill-opacity:1.0;stroke-width:10.5041;stroke-linecap:round;stroke-linejoin:round;paint-order:markers fill stroke;opacity:1"
       id="circle1019"
       cx="102.99194"
       cy="139.13712"
       r="92.975807" />
    <circle
       style="fill:#30397e;stroke-width:9.37251;stroke-linecap:round;stroke-linejoin:round;paint-order:markers fill stroke;opacity:1;fill-opacity:1"
       id="circle1807"
       cx="103.60779"
       cy="142.66704"
       r="82.959679" />
    <circle
       style="fill:#ffffff;stroke-width:9.34791;stroke-linecap:round;stroke-linejoin:round;paint-order:markers fill stroke"
       id="circle928"
       cx="103.82553"
       cy="128.9493"
       r="82.741936" />
    <g
       id="g971"
       transform="matrix(1.8093591,0,0,1.8093591,45.780152,71.220574)"
       style="fill:#30397e;fill-opacity:1.0;opacity:1">
      <g
         id="g967"
         style="fill:#30397e;fill-opacity:1.0">
        <path
           d="m 36.256,41.437 c -2.451,3.992 -7.285,3.291 -8.825,0.14 -4.063,4.414 -7.377,-0.145 -7.377,-0.145 0.744,5.889 5.768,10.439 11.86,10.439 6.19,0 11.28,-4.701 11.891,-10.73 0,0 -5.448,3.167 -7.549,0.296 z"
           fill="#241f20"
           id="path963"
           style="fill:#30397e;fill-opacity:1.0" />
        <path
           d="m 6.888,18.287 v 44.036 c 0,0.926 0.782,1.674 1.751,1.674 h 46.722 c 0.967,0 1.75,-0.748 1.75,-1.674 V 18.287 Z M 31.93,54.794 c -7.821,0 -14.161,-6.339 -14.161,-14.16 0,-7.819 6.339,-14.16 14.161,-14.16 7.82,0 14.16,6.34 14.16,14.16 0,7.821 -6.34,14.16 -14.16,14.16 z"
           fill="#241f20"
           id="path965"
           style="fill:#30397e;fill-opacity:1.0" />
      </g>
      <path
         d="M 55.361,0.004 H 8.639 C 7.67,0.004 6.888,0.813 6.888,1.812 V 15.071 H 57.111 V 1.812 c 0,-0.999 -0.783,-1.808 -1.75,-1.808 z M 16.13,10.049 c -1.387,0 -2.511,-1.125 -2.511,-2.511 0,-1.388 1.124,-2.511 2.511,-2.511 1.387,0 2.511,1.123 2.511,2.511 0.001,1.386 -1.123,2.511 -2.511,2.511 z m 8.292,0 c -1.386,0 -2.511,-1.125 -2.511,-2.511 0,-1.388 1.125,-2.511 2.511,-2.511 1.386,0 2.511,1.123 2.511,2.511 0.001,1.386 -1.124,2.511 -2.511,2.511 z"
         fill="#241f20"
         id="path969"
         style="fill:#30397e;fill-opacity:1.0" />
    </g>
  </g>
</svg>
