<?xml version="1.0" encoding="UTF-8" standalone="no"?>
<svg
   height="24px"
   id="Layer_1"
   version="1.2"
   viewBox="0 0 24 24"
   width="24px"
   xml:space="preserve"
   sodipodi:docname="216242_home_icon.svg"
   inkscape:version="1.1 (c68e22c387, 2021-05-23)"
   xmlns:inkscape="http://www.inkscape.org/namespaces/inkscape"
   xmlns:sodipodi="http://sodipodi.sourceforge.net/DTD/sodipodi-0.dtd"
   xmlns="http://www.w3.org/2000/svg"
   xmlns:svg="http://www.w3.org/2000/svg"><defs
     id="defs7" /><sodipodi:namedview
     id="namedview5"
     pagecolor="#ffffff"
     bordercolor="#999999"
     borderopacity="1"
     inkscape:pageshadow="0"
     inkscape:pageopacity="0"
     inkscape:pagecheckerboard="0"
     showgrid="false"
     inkscape:zoom="28.416667"
     inkscape:cx="11.982405"
     inkscape:cy="11.982405"
     inkscape:window-width="1646"
     inkscape:window-height="847"
     inkscape:window-x="1909"
     inkscape:window-y="-11"
     inkscape:window-maximized="1"
     inkscape:current-layer="Layer_1" /><path
     d="M12,3c0,0-6.186,5.34-9.643,8.232C2.154,11.416,2,11.684,2,12c0,0.553,0.447,1,1,1h2v7c0,0.553,0.447,1,1,1h3  c0.553,0,1-0.448,1-1v-4h4v4c0,0.552,0.447,1,1,1h3c0.553,0,1-0.447,1-1v-7h2c0.553,0,1-0.447,1-1c0-0.316-0.154-0.584-0.383-0.768  C18.184,8.34,12,3,12,3z"
     id="path2"
     style="fill:#2a9dc9;fill-opacity:1.0" /></svg>
