<?xml version="1.0" encoding="UTF-8" standalone="no"?>
<svg
   id="Lager_1"
   style="enable-background:new -265 388.9 64 64;"
   version="1.1"
   viewBox="-265 388.9 64 64"
   xml:space="preserve"
   sodipodi:docname="623070_box_label_storage_delivery_gift_icon.svg"
   inkscape:version="1.1 (c68e22c387, 2021-05-23)"
   xmlns:inkscape="http://www.inkscape.org/namespaces/inkscape"
   xmlns:sodipodi="http://sodipodi.sourceforge.net/DTD/sodipodi-0.dtd"
   xmlns="http://www.w3.org/2000/svg"
   xmlns:svg="http://www.w3.org/2000/svg"><defs
     id="defs11" /><sodipodi:namedview
     id="namedview9"
     pagecolor="#ffffff"
     bordercolor="#999999"
     borderopacity="1"
     inkscape:pageshadow="0"
     inkscape:pageopacity="0"
     inkscape:pagecheckerboard="0"
     showgrid="false"
     inkscape:zoom="10.65625"
     inkscape:cx="31.953079"
     inkscape:cy="32.046921"
     inkscape:window-width="1646"
     inkscape:window-height="847"
     inkscape:window-x="1909"
     inkscape:window-y="-11"
     inkscape:window-maximized="1"
     inkscape:current-layer="Lager_1" /><g
     id="g6"
     style="fill:#2a9dc9;fill-opacity:1.0"><path
       d="M-211.4,409.9h-43.2c-0.2,0-0.4-0.2-0.4-0.4v-8.8c0-1,0.8-1.8,1.8-1.8h40.3c1,0,1.8,0.8,1.8,1.8v8.8   C-211,409.7-211.2,409.9-211.4,409.9z"
       id="path2"
       style="fill:#2a9dc9;fill-opacity:1.0" /><path
       d="M-255,413.9V441c0,1,0.8,1.8,1.8,1.8h40.3c1,0,1.8-0.8,1.8-1.8v-27.1c0-0.2-0.2-0.4-0.4-0.4h-43.1   C-254.8,413.6-255,413.7-255,413.9z M-223.8,428.2h-18.4c-1,0-1.8-0.8-1.8-1.8v-3.7c0-1,0.8-1.8,1.8-1.8h18.3c1,0,1.8,0.8,1.8,1.8   v3.7C-222,427.4-222.8,428.2-223.8,428.2z"
       id="path4"
       style="fill:#2a9dc9;fill-opacity:1.0" /></g></svg>
