<?xml version="1.0" encoding="UTF-8" standalone="no"?>
<svg
   height="1792"
   viewBox="0 0 1792 1792"
   width="1792"
   version="1.1"
   id="svg4"
   sodipodi:docname="1608521_arrow_circle_up_icon.svg"
   inkscape:version="1.1 (c68e22c387, 2021-05-23)"
   xmlns:inkscape="http://www.inkscape.org/namespaces/inkscape"
   xmlns:sodipodi="http://sodipodi.sourceforge.net/DTD/sodipodi-0.dtd"
   xmlns="http://www.w3.org/2000/svg"
   xmlns:svg="http://www.w3.org/2000/svg">
  <defs
     id="defs8" />
  <sodipodi:namedview
     id="namedview6"
     pagecolor="#ffffff"
     bordercolor="#999999"
     borderopacity="1"
     inkscape:pageshadow="0"
     inkscape:pageopacity="0"
     inkscape:pagecheckerboard="0"
     showgrid="false"
     inkscape:zoom="0.38058036"
     inkscape:cx="894.68622"
     inkscape:cy="896"
     inkscape:window-width="1920"
     inkscape:window-height="1000"
     inkscape:window-x="-11"
     inkscape:window-y="1069"
     inkscape:window-maximized="1"
     inkscape:current-layer="svg4" />
  <path
     d="M1412 895q0-27-18-45l-362-362-91-91q-18-18-45-18t-45 18l-91 91-362 362q-18 18-18 45t18 45l91 91q18 18 45 18t45-18l189-189v502q0 26 19 45t45 19h128q26 0 45-19t19-45v-502l189 189q19 19 45 19t45-19l91-91q18-18 18-45zm252 1q0 209-103 385.5t-279.5 279.5-385.5 103-385.5-103-279.5-279.5-103-385.5 103-385.5 279.5-279.5 385.5-103 385.5 103 279.5 279.5 103 385.5z"
     id="path2"
     style="fill:#ffffff" />
</svg>
