<?xml version="1.0" encoding="UTF-8" standalone="no"?>
<svg
   height="512px"
   id="Layer_1"
   style="enable-background:new 0 0 512 512;"
   version="1.1"
   viewBox="0 0 512 512"
   width="512px"
   xml:space="preserve"
   sodipodi:docname="211677_image_icon.svg"
   inkscape:version="1.1 (c68e22c387, 2021-05-23)"
   xmlns:inkscape="http://www.inkscape.org/namespaces/inkscape"
   xmlns:sodipodi="http://sodipodi.sourceforge.net/DTD/sodipodi-0.dtd"
   xmlns="http://www.w3.org/2000/svg"
   xmlns:svg="http://www.w3.org/2000/svg"><defs
     id="defs11" /><sodipodi:namedview
     id="namedview9"
     pagecolor="#ffffff"
     bordercolor="#999999"
     borderopacity="1"
     inkscape:pageshadow="0"
     inkscape:pageopacity="0"
     inkscape:pagecheckerboard="0"
     showgrid="false"
     inkscape:zoom="1.3320312"
     inkscape:cx="255.62463"
     inkscape:cy="256"
     inkscape:window-width="1920"
     inkscape:window-height="1000"
     inkscape:window-x="-11"
     inkscape:window-y="1069"
     inkscape:window-maximized="1"
     inkscape:current-layer="Layer_1" /><g
     id="g6"
     style="fill:#ffffff"><path
       d="M368,224c26.5,0,48-21.5,48-48c0-26.5-21.5-48-48-48c-26.5,0-48,21.5-48,48C320,202.5,341.5,224,368,224z"
       id="path2"
       style="fill:#ffffff" /><path
       d="M452,64H60c-15.6,0-28,12.7-28,28.3v327.4c0,15.6,12.4,28.3,28,28.3h392c15.6,0,28-12.7,28-28.3V92.3   C480,76.7,467.6,64,452,64z M348.9,261.7c-3-3.5-7.6-6.2-12.8-6.2c-5.1,0-8.7,2.4-12.8,5.7l-18.7,15.8c-3.9,2.8-7,4.7-11.5,4.7   c-4.3,0-8.2-1.6-11-4.1c-1-0.9-2.8-2.6-4.3-4.1L224,215.3c-4-4.6-10-7.5-16.7-7.5c-6.7,0-12.9,3.3-16.8,7.8L64,368.2V107.7   c1-6.8,6.3-11.7,13.1-11.7h357.7c6.9,0,12.5,5.1,12.9,12l0.3,260.4L348.9,261.7z"
       id="path4"
       style="fill:#ffffff" /></g></svg>
