<?xml version="1.0" encoding="UTF-8" standalone="no"?>
<svg
   id="Layer_1"
   style="enable-background:new 0 0 30 30;"
   version="1.1"
   viewBox="0 0 30 30"
   xml:space="preserve"
   sodipodi:docname="2639912_save_icon.svg"
   inkscape:version="1.1 (c68e22c387, 2021-05-23)"
   xmlns:inkscape="http://www.inkscape.org/namespaces/inkscape"
   xmlns:sodipodi="http://sodipodi.sourceforge.net/DTD/sodipodi-0.dtd"
   xmlns="http://www.w3.org/2000/svg"
   xmlns:svg="http://www.w3.org/2000/svg"><defs
     id="defs9" /><sodipodi:namedview
     id="namedview7"
     pagecolor="#ffffff"
     bordercolor="#999999"
     borderopacity="1"
     inkscape:pageshadow="0"
     inkscape:pageopacity="0"
     inkscape:pagecheckerboard="0"
     showgrid="false"
     inkscape:zoom="22.733333"
     inkscape:cx="14.978006"
     inkscape:cy="15"
     inkscape:window-width="1920"
     inkscape:window-height="1000"
     inkscape:window-x="-11"
     inkscape:window-y="1069"
     inkscape:window-maximized="1"
     inkscape:current-layer="Layer_1" /><path
     d="M22,4h-2v6c0,0.552-0.448,1-1,1h-9c-0.552,0-1-0.448-1-1V4H6C4.895,4,4,4.895,4,6v18c0,1.105,0.895,2,2,2h18  c1.105,0,2-0.895,2-2V8L22,4z M22,24H8v-6c0-1.105,0.895-2,2-2h10c1.105,0,2,0.895,2,2V24z"
     id="path2"
     style="fill:#ffffff" /><rect
     height="5"
     width="2"
     x="16"
     y="4"
     id="rect4"
     style="fill:#ffffff" /></svg>
