<?xml version="1.0" encoding="UTF-8" standalone="no"?>
<svg
   height="20px"
   version="1.1"
   viewBox="0 0 20 20"
   width="20px"
   id="svg12"
   sodipodi:docname="326677_on_radio_icon.svg"
   inkscape:version="1.1 (c68e22c387, 2021-05-23)"
   xmlns:inkscape="http://www.inkscape.org/namespaces/inkscape"
   xmlns:sodipodi="http://sodipodi.sourceforge.net/DTD/sodipodi-0.dtd"
   xmlns="http://www.w3.org/2000/svg"
   xmlns:svg="http://www.w3.org/2000/svg">
  <sodipodi:namedview
     id="namedview14"
     pagecolor="#ffffff"
     bordercolor="#999999"
     borderopacity="1"
     inkscape:pageshadow="0"
     inkscape:pageopacity="0"
     inkscape:pagecheckerboard="0"
     showgrid="false"
     inkscape:zoom="34.1"
     inkscape:cx="9.9853372"
     inkscape:cy="10"
     inkscape:window-width="1920"
     inkscape:window-height="1000"
     inkscape:window-x="-11"
     inkscape:window-y="-11"
     inkscape:window-maximized="1"
     inkscape:current-layer="svg12" />
  <title
     id="title2" />
  <desc
     id="desc4" />
  <defs
     id="defs6" />
  <g
     fill="none"
     fill-rule="evenodd"
     id="Page-1"
     stroke="none"
     stroke-width="1"
     style="fill:#ffffff">
    <g
       fill="#000000"
       id="Core"
       transform="translate(-338.000000, -338.000000)"
       style="fill:#ffffff">
      <g
         id="radio-button-on"
         transform="translate(338.000000, 338.000000)"
         style="fill:#ffffff">
        <path
           d="M10,5 C7.2,5 5,7.2 5,10 C5,12.8 7.2,15 10,15 C12.8,15 15,12.8 15,10 C15,7.2 12.8,5 10,5 L10,5 Z M10,0 C4.5,0 0,4.5 0,10 C0,15.5 4.5,20 10,20 C15.5,20 20,15.5 20,10 C20,4.5 15.5,0 10,0 L10,0 Z M10,18 C5.6,18 2,14.4 2,10 C2,5.6 5.6,2 10,2 C14.4,2 18,5.6 18,10 C18,14.4 14.4,18 10,18 L10,18 Z"
           id="Shape"
           style="fill:#ffffff" />
      </g>
    </g>
  </g>
</svg>
