<?xml version="1.0" encoding="UTF-8" standalone="no"?>
<svg
   id="Solid"
   viewBox="0 0 32 32"
   version="1.1"
   sodipodi:docname="4945336_business_close_document_files_folder_icon.svg"
   inkscape:version="1.1 (c68e22c387, 2021-05-23)"
   xmlns:inkscape="http://www.inkscape.org/namespaces/inkscape"
   xmlns:sodipodi="http://sodipodi.sourceforge.net/DTD/sodipodi-0.dtd"
   xmlns="http://www.w3.org/2000/svg"
   xmlns:svg="http://www.w3.org/2000/svg">
  <sodipodi:namedview
     id="namedview11"
     pagecolor="#ffffff"
     bordercolor="#999999"
     borderopacity="1"
     inkscape:pageshadow="0"
     inkscape:pageopacity="0"
     inkscape:pagecheckerboard="0"
     showgrid="false"
     inkscape:zoom="21.3125"
     inkscape:cx="15.97654"
     inkscape:cy="16"
     inkscape:window-width="1920"
     inkscape:window-height="1000"
     inkscape:window-x="-11"
     inkscape:window-y="1069"
     inkscape:window-maximized="1"
     inkscape:current-layer="Solid" />
  <defs
     id="defs4">
    <style
       id="style2">.cls-1{fill:#1a1a1a;}</style>
  </defs>
  <title
     id="title6" />
  <path
     class="cls-1"
     d="M26.74,8.5a.65.65,0,0,0,0-.19.64.64,0,0,0,0-.07A.86.86,0,0,0,26.53,8L20.86,2.46a.83.83,0,0,0-.22-.14l-.07,0a.58.58,0,0,0-.18,0H6A.76.76,0,0,0,5.25,3V29a.76.76,0,0,0,.75.75H26a.76.76,0,0,0,.75-.75V8.55S26.74,8.52,26.74,8.5ZM20.07,20a.75.75,0,0,1,0,1.06.79.79,0,0,1-.53.22.75.75,0,0,1-.53-.22l-3-3-3,3a.75.75,0,0,1-.53.22.79.79,0,0,1-.53-.22.75.75,0,0,1,0-1.06l3-3-3-3A.75.75,0,0,1,13,12.93l3,3,3-3A.75.75,0,0,1,20.07,14l-3,3ZM25.25,9.3H20.34a.75.75,0,0,1-.75-.75V3.75H20l1.06,1,3.07,3,1.09,1.06Z"
     id="path8"
     style="fill:#ffffff" />
</svg>
