<?xml version="1.0" encoding="UTF-8" standalone="no"?>
<svg
   viewBox="0 0 32 32"
   version="1.1"
   id="svg9"
   sodipodi:docname="5208399_delete_garbage_recycle_remove_trash_icon.svg"
   inkscape:version="1.1 (c68e22c387, 2021-05-23)"
   xmlns:inkscape="http://www.inkscape.org/namespaces/inkscape"
   xmlns:sodipodi="http://sodipodi.sourceforge.net/DTD/sodipodi-0.dtd"
   xmlns="http://www.w3.org/2000/svg"
   xmlns:svg="http://www.w3.org/2000/svg">
  <defs
     id="defs13" />
  <sodipodi:namedview
     id="namedview11"
     pagecolor="#ffffff"
     bordercolor="#999999"
     borderopacity="1"
     inkscape:pageshadow="0"
     inkscape:pageopacity="0"
     inkscape:pagecheckerboard="0"
     showgrid="false"
     inkscape:zoom="21.3125"
     inkscape:cx="15.97654"
     inkscape:cy="16"
     inkscape:window-width="1920"
     inkscape:window-height="1000"
     inkscape:window-x="-11"
     inkscape:window-y="-11"
     inkscape:window-maximized="1"
     inkscape:current-layer="svg9" />
  <title
     id="title2" />
  <g
     id="Trash"
     style="fill:#ffffff">
    <path
       d="M7.13,11.58V25a3,3,0,0,0,3,3H21.88a3,3,0,0,0,3-3V11.58a1,1,0,0,0-1-1H8.13A1,1,0,0,0,7.13,11.58ZM13,23a1,1,0,0,1-2,0V15a1,1,0,0,1,2,0Zm4,0a1,1,0,0,1-2,0V15a1,1,0,0,1,2,0Zm4,0a1,1,0,0,1-2,0V15a1,1,0,0,1,2,0Z"
       id="path4"
       style="fill:#ffffff" />
    <path
       d="M25.23,9.3A2.49,2.49,0,0,0,26,7.21,2.6,2.6,0,0,0,23.36,5H18.72A2,2,0,0,0,17,4H15a2,2,0,0,0-1.72,1H8.64A2.6,2.6,0,0,0,6,7.21,2.49,2.49,0,0,0,6.77,9.3a1,1,0,0,0,.71.29h17A1,1,0,0,0,25.23,9.3Z"
       id="path6"
       style="fill:#ffffff" />
  </g>
</svg>
