<?xml version="1.0" encoding="UTF-8" standalone="no"?>
<svg
   data-name="Layer 1"
   id="Layer_1"
   viewBox="0 0 100 100"
   version="1.1"
   sodipodi:docname="7011187_hand_person_clothes_over_people_icon.svg"
   inkscape:version="1.1 (c68e22c387, 2021-05-23)"
   xmlns:inkscape="http://www.inkscape.org/namespaces/inkscape"
   xmlns:sodipodi="http://sodipodi.sourceforge.net/DTD/sodipodi-0.dtd"
   xmlns="http://www.w3.org/2000/svg"
   xmlns:svg="http://www.w3.org/2000/svg">
  <defs
     id="defs19" />
  <sodipodi:namedview
     id="namedview17"
     pagecolor="#ffffff"
     bordercolor="#999999"
     borderopacity="1"
     inkscape:pageshadow="0"
     inkscape:pageopacity="0"
     inkscape:pagecheckerboard="0"
     showgrid="false"
     inkscape:zoom="6.82"
     inkscape:cx="49.926686"
     inkscape:cy="50"
     inkscape:window-width="1920"
     inkscape:window-height="1000"
     inkscape:window-x="-11"
     inkscape:window-y="1069"
     inkscape:window-maximized="1"
     inkscape:current-layer="Layer_1" />
  <path
     d="M50,37A16,16,0,1,1,66,21,16,16,0,0,1,50,37ZM50,7A14,14,0,1,0,64,21,14,14,0,0,0,50,7Z"
     id="path2"
     style="fill:#ffffff;opacity:0.71812081" />
  <path
     d="M59,19.44a1,1,0,0,1-.92-.6c-.15-.34-.31-.67-.49-1a12.2,12.2,0,0,0-2-2.71,12.54,12.54,0,0,0-3-2.23,13.41,13.41,0,0,0-1.79-.77,1,1,0,1,1,.64-1.89,12.81,12.81,0,0,1,2.08.9A14.24,14.24,0,0,1,57,13.73a14.54,14.54,0,0,1,2.37,3.15A12.46,12.46,0,0,1,59.93,18a1,1,0,0,1-.51,1.31A1,1,0,0,1,59,19.44Z"
     id="path4"
     style="fill:#ffffff;opacity:0.71812081" />
  <path
     d="M70,75H34.44C29,75,24.56,70,24.56,64S29,53,34.44,53H70a5.74,5.74,0,0,1,5.44,6A6.15,6.15,0,0,1,73,64a6.18,6.18,0,0,1,2.43,5A5.75,5.75,0,0,1,70,75ZM34.44,55c-4.35,0-7.88,4-7.88,9s3.53,9,7.88,9H70a4,4,0,0,0,0-8,1,1,0,0,1,0-2,4,4,0,0,0,0-8Z"
     id="path6"
     style="fill:#ffffff;opacity:0.71812081" />
  <path
     d="M70,65H34a1,1,0,0,1,0-2H70a1,1,0,0,1,0,2Z"
     id="path8"
     style="fill:#ffffff;opacity:0.71812081" />
  <path
     d="M70,85H34a1,1,0,0,1,0-2H70a1,1,0,0,1,0,2Z"
     id="path10"
     style="fill:#ffffff;opacity:0.71812081" />
  <path
     d="M70,95H34.44c-5.45,0-9.88-4.94-9.88-11v-.18c.09-6,4.52-10.82,9.88-10.82H70a5.74,5.74,0,0,1,5.43,6A6.23,6.23,0,0,1,73,84a6.17,6.17,0,0,1,2.43,5A5.74,5.74,0,0,1,70,95ZM34.44,75c-4.27,0-7.81,4-7.88,8.84V84c0,5,3.53,9,7.88,9H70a4,4,0,0,0,0-8,1,1,0,1,1,0-2,2.73,2.73,0,0,0,.87-.13A3.94,3.94,0,0,0,73.44,79,3.76,3.76,0,0,0,70,75Z"
     id="path12"
     style="fill:#ffffff;opacity:0.71812081" />
  <path
     d="M85,85H70a1,1,0,1,1,0-2,2.73,2.73,0,0,0,.87-.13A3.94,3.94,0,0,0,73.44,79,3.76,3.76,0,0,0,70,75H34.44c-4.27,0-7.81,4-7.88,8.84V84a1,1,0,0,1-1,1H15a6,6,0,0,1-6-6V49a6,6,0,0,1,6-6H85a6,6,0,0,1,6,6V79A6,6,0,0,1,85,85ZM74.06,83H85a4,4,0,0,0,4-4V49a4,4,0,0,0-4-4H15a4,4,0,0,0-4,4V79a4,4,0,0,0,4,4h9.6c.46-5.59,4.73-10,9.84-10H70a5.74,5.74,0,0,1,5.43,6A6.39,6.39,0,0,1,74.06,83Z"
     id="path14"
     style="fill:#ffffff;opacity:0.71812081" />
</svg>
