<?xml version="1.0" encoding="UTF-8" standalone="no"?>
<svg
   data-name="Layer 1"
   id="Layer_1"
   viewBox="0 0 512 512"
   version="1.1"
   sodipodi:docname="7097281_washing_folding_clothes_basket_laundry_icon.svg"
   inkscape:version="1.1 (c68e22c387, 2021-05-23)"
   xmlns:inkscape="http://www.inkscape.org/namespaces/inkscape"
   xmlns:sodipodi="http://sodipodi.sourceforge.net/DTD/sodipodi-0.dtd"
   xmlns="http://www.w3.org/2000/svg"
   xmlns:svg="http://www.w3.org/2000/svg">
  <defs
     id="defs29" />
  <sodipodi:namedview
     id="namedview27"
     pagecolor="#ffffff"
     bordercolor="#999999"
     borderopacity="1"
     inkscape:pageshadow="0"
     inkscape:pageopacity="0"
     inkscape:pagecheckerboard="0"
     showgrid="false"
     inkscape:zoom="1.3320312"
     inkscape:cx="255.62463"
     inkscape:cy="256"
     inkscape:window-width="1920"
     inkscape:window-height="1000"
     inkscape:window-x="-11"
     inkscape:window-y="1069"
     inkscape:window-maximized="1"
     inkscape:current-layer="Layer_1" />
  <title
     id="title2" />
  <path
     d="M444.12,268.05h-25A24.32,24.32,0,0,0,423,254.78a24.61,24.61,0,0,0-8.88-18.84A24.59,24.59,0,0,0,423,217.1V179.42a24.59,24.59,0,0,0-24.55-24.56h-4.72a24.45,24.45,0,0,0-5-32.11,24.63,24.63,0,0,0,8.87-18.84V66.22a24.58,24.58,0,0,0-24.54-24.55H138.91a24.52,24.52,0,0,0-15.69,43.39,24.64,24.64,0,0,0-8.87,18.85v37.68a24.4,24.4,0,0,0,3.91,13.27h-4.71a24.51,24.51,0,0,0-15.68,43.39A24.61,24.61,0,0,0,89,217.1v37.68a24.32,24.32,0,0,0,3.92,13.27h-25a21.6,21.6,0,0,0-21.58,21.57v16.89A21.6,21.6,0,0,0,67.9,328.08h9.87L93.28,443.26a31.38,31.38,0,0,0,31,27.07H387.75a31.37,31.37,0,0,0,31-27.07l15.53-115.18h9.87a21.6,21.6,0,0,0,21.56-21.57V289.62A21.6,21.6,0,0,0,444.12,268.05ZM125.63,141.59V103.91a13.33,13.33,0,0,1,12-13.2h225a5.64,5.64,0,0,0,0-11.28h-225A13.27,13.27,0,0,1,138.91,53h234.2a13.29,13.29,0,0,1,13.26,13.27v37.69a13.32,13.32,0,0,1-11.91,13.18h-225a5.65,5.65,0,0,0,0,11.29H374.35a13.27,13.27,0,0,1-1.24,26.48H138.91A13.3,13.3,0,0,1,125.63,141.59ZM100.27,254.78V217.1a13.34,13.34,0,0,1,12-13.2H387.93a5.64,5.64,0,0,0,0-11.28H112.26a13.27,13.27,0,0,1,1.29-26.48H398.46a13.29,13.29,0,0,1,13.27,13.28V217.1a13.33,13.33,0,0,1-11.93,13.19H124.09a5.64,5.64,0,0,0,0,11.28h275.6a13.27,13.27,0,0,1-1.23,26.48H113.55A13.3,13.3,0,0,1,100.27,254.78Zm307.25,187a20,20,0,0,1-19.77,17.3H124.26a20,20,0,0,1-19.78-17.3L89.16,328.08H134v12.81a5.64,5.64,0,1,0,11.28,0V328.08h46.91v12.81a5.64,5.64,0,1,0,11.28,0V328.08h46.92v12.81a5.64,5.64,0,0,0,11.28,0V328.08h46.92v12.81a5.64,5.64,0,0,0,11.28,0V328.08h46.92v12.81a5.64,5.64,0,1,0,11.28,0V328.08h44.81ZM454.4,306.51a10.29,10.29,0,0,1-10.28,10.29H67.9a10.3,10.3,0,0,1-10.3-10.29V289.62a10.3,10.3,0,0,1,10.3-10.29H444.12a10.3,10.3,0,0,1,10.28,10.29Z"
     id="path4"
     style="fill:#ffffff;opacity:0.71812081" />
  <path
     d="M139.61,401.94a5.65,5.65,0,0,0-5.64,5.64v16.53a5.64,5.64,0,1,0,11.28,0V407.58A5.64,5.64,0,0,0,139.61,401.94Z"
     id="path6"
     style="fill:#ffffff;opacity:0.71812081" />
  <path
     d="M197.8,401.94a5.65,5.65,0,0,0-5.64,5.64v16.53a5.64,5.64,0,1,0,11.28,0V407.58A5.65,5.65,0,0,0,197.8,401.94Z"
     id="path8"
     style="fill:#ffffff;opacity:0.71812081" />
  <path
     d="M256,401.94a5.65,5.65,0,0,0-5.64,5.64v16.53a5.64,5.64,0,0,0,11.28,0V407.58A5.65,5.65,0,0,0,256,401.94Z"
     id="path10"
     style="fill:#ffffff;opacity:0.71812081" />
  <path
     d="M372.4,401.94a5.65,5.65,0,0,0-5.64,5.64v16.53a5.64,5.64,0,0,0,11.28,0V407.58A5.64,5.64,0,0,0,372.4,401.94Z"
     id="path12"
     style="fill:#ffffff;opacity:0.71812081" />
  <path
     d="M314.2,401.94a5.65,5.65,0,0,0-5.64,5.64v16.53a5.64,5.64,0,0,0,11.28,0V407.58A5.65,5.65,0,0,0,314.2,401.94Z"
     id="path14"
     style="fill:#ffffff;opacity:0.71812081" />
  <path
     d="M139.61,360.33A5.65,5.65,0,0,0,134,366V382.5a5.64,5.64,0,1,0,11.28,0V366A5.64,5.64,0,0,0,139.61,360.33Z"
     id="path16"
     style="fill:#ffffff;opacity:0.71812081" />
  <path
     d="M197.8,360.33a5.65,5.65,0,0,0-5.64,5.64V382.5a5.64,5.64,0,1,0,11.28,0V366A5.65,5.65,0,0,0,197.8,360.33Z"
     id="path18"
     style="fill:#ffffff;opacity:0.71812081" />
  <path
     d="M256,360.33a5.65,5.65,0,0,0-5.64,5.64V382.5a5.64,5.64,0,0,0,11.28,0V366A5.65,5.65,0,0,0,256,360.33Z"
     id="path20"
     style="fill:#ffffff;opacity:0.71812081" />
  <path
     d="M372.4,360.33a5.65,5.65,0,0,0-5.64,5.64V382.5a5.64,5.64,0,1,0,11.28,0V366A5.64,5.64,0,0,0,372.4,360.33Z"
     id="path22"
     style="fill:#ffffff;opacity:0.71812081" />
  <path
     d="M314.2,360.33a5.65,5.65,0,0,0-5.64,5.64V382.5a5.64,5.64,0,0,0,11.28,0V366A5.65,5.65,0,0,0,314.2,360.33Z"
     id="path24"
     style="fill:#ffffff;opacity:0.71812081" />
</svg>
