<?xml version="1.0" encoding="UTF-8" standalone="no"?>
<svg
   data-name="Layer 1"
   id="Layer_1"
   viewBox="0 0 512 512"
   version="1.1"
   sodipodi:docname="7097271_washing_bubble_detergent powder_t-shirt_laundry_icon.svg"
   inkscape:version="1.1 (c68e22c387, 2021-05-23)"
   xmlns:inkscape="http://www.inkscape.org/namespaces/inkscape"
   xmlns:sodipodi="http://sodipodi.sourceforge.net/DTD/sodipodi-0.dtd"
   xmlns="http://www.w3.org/2000/svg"
   xmlns:svg="http://www.w3.org/2000/svg">
  <defs
     id="defs17" />
  <sodipodi:namedview
     id="namedview15"
     pagecolor="#ffffff"
     bordercolor="#999999"
     borderopacity="1"
     inkscape:pageshadow="0"
     inkscape:pageopacity="0"
     inkscape:pagecheckerboard="0"
     showgrid="false"
     inkscape:zoom="1.3320312"
     inkscape:cx="255.62463"
     inkscape:cy="256"
     inkscape:window-width="1920"
     inkscape:window-height="1000"
     inkscape:window-x="-11"
     inkscape:window-y="1069"
     inkscape:window-maximized="1"
     inkscape:current-layer="Layer_1" />
  <title
     id="title2" />
  <path
     d="M424.09,352.53a75,75,0,0,0-40.45-34.74V198.37l18.21,18.2a5.63,5.63,0,0,0,8,0l58.95-58.95a5.66,5.66,0,0,0,0-8L380.07,60.93a5.73,5.73,0,0,0-3-1.57L311.84,48A5.76,5.76,0,0,0,307,49.38a5.67,5.67,0,0,0-1.78,4.69c0,.28,2.47,27.59-12.92,44.56-8.3,9.14-20.52,13.78-36.33,13.8s-28-4.66-36.33-13.8c-15.39-17-12.95-44.28-12.92-44.56A5.64,5.64,0,0,0,200.16,48L135,59.36a5.73,5.73,0,0,0-3,1.57L43.22,149.65a5.66,5.66,0,0,0,0,8l59,58.95a5.63,5.63,0,0,0,8,0l18.21-18.2v78.19A83.88,83.88,0,0,0,77.65,345,60.56,60.56,0,0,0,86,463.27a5.52,5.52,0,0,0,2.38.53l3.31.1a27.2,27.2,0,0,0,7.34-.1l134.85.07a51.41,51.41,0,0,0,10.38-.07l109.62.09a37.89,37.89,0,0,0,9-.09l56.37.1a29.63,29.63,0,0,0,3.3.23,55.81,55.81,0,0,0,1.54-111.6Zm-287.93-173a5.62,5.62,0,0,0-6.14,1.23l-23.86,23.84-51-51,83.47-83.46,56.64-9.9c.18,10.71,2.48,31,16,45.88,10.5,11.6,25.5,17.51,44.58,17.56h.3c19.08,0,34.08-6,44.58-17.56,13.49-14.9,15.79-35.17,16-45.88l56.64,9.9,83.47,83.46-51,51L382,180.77a5.63,5.63,0,0,0-9.62,4v19.61a24.69,24.69,0,1,0,0,39.77v70.59a76.27,76.27,0,0,0-14.08-1.32c-.69,0-1.38,0-2,.1a83.31,83.31,0,0,0-138.48-20.72,83,83,0,0,0-78.11-20v-88A5.65,5.65,0,0,0,136.16,179.54Zm235,44.71a13.41,13.41,0,1,1-13.39-13.41A13.4,13.4,0,0,1,371.15,224.25Zm51.4,228.6a19.57,19.57,0,0,1-2-.16c-.21,0-1.73-.17-1.94-.17h-56.1l-1.64.15a32,32,0,0,1-5.95,0c-.17,0-1.63-.13-1.8-.13H243.88l-1.42.11a47.53,47.53,0,0,1-7.64,0l-1.63-.11H99.06c-.18,0-1.5.12-1.68.13a23.89,23.89,0,0,1-4.08.08c-.25,0-1.9-.21-2.16-.21h-1a5.1,5.1,0,0,0-1.11-.24A49.29,49.29,0,0,1,84.12,355a5.62,5.62,0,0,0,4.46-5.21A72,72,0,0,1,214,305a5.45,5.45,0,0,0,4.42,1.82,5.63,5.63,0,0,0,4.23-2.22,72.06,72.06,0,0,1,124.82,17.06,5.71,5.71,0,0,0,5.7,3.54l2.47-.28a19.63,19.63,0,0,1,2.67-.26,63.89,63.89,0,0,1,17.82,2.52,3.68,3.68,0,0,0,.47.15,63.88,63.88,0,0,1,39.11,33.45c1,2,2.36,3.09,5.27,3.17l1.68-.18a44.53,44.53,0,0,1-.08,89.06Z"
     id="path4"
     style="fill:#ffffff;opacity:0.71812081" />
  <path
     d="M447.72,274a21.9,21.9,0,1,0,21.9,21.9A21.91,21.91,0,0,0,447.72,274Zm0,32.51a10.61,10.61,0,1,1,10.62-10.61A10.62,10.62,0,0,1,447.72,306.5Z"
     id="path6"
     style="fill:#ffffff;opacity:0.71812081" />
  <path
     d="M235.07,217.15a30.34,30.34,0,1,0-30.34-30.33A30.36,30.36,0,0,0,235.07,217.15Zm0-49.38a19.05,19.05,0,1,1-19.06,19A19.07,19.07,0,0,1,235.07,167.77Z"
     id="path8"
     style="fill:#ffffff;opacity:0.71812081" />
  <path
     d="M66.83,259.66a21.9,21.9,0,1,0-21.91-21.89A21.92,21.92,0,0,0,66.83,259.66Zm0-32.5a10.61,10.61,0,1,1-10.62,10.61A10.62,10.62,0,0,1,66.83,227.16Z"
     id="path10"
     style="fill:#ffffff;opacity:0.71812081" />
  <path
     d="M200.15,337a32.12,32.12,0,1,0,32.13,32.12A32.16,32.16,0,0,0,200.15,337Zm0,53A20.84,20.84,0,1,1,221,369.08,20.87,20.87,0,0,1,200.15,389.92Z"
     id="path12"
     style="fill:#ffffff;opacity:0.71812081" />
</svg>
