<?xml version="1.0" encoding="UTF-8" standalone="no"?>
<svg
   viewBox="0 0 40 40"
   version="1.1"
   id="svg16"
   sodipodi:docname="7422413_exel_spreadsheet_sheets_table_icon.svg"
   inkscape:version="1.1 (c68e22c387, 2021-05-23)"
   xmlns:inkscape="http://www.inkscape.org/namespaces/inkscape"
   xmlns:sodipodi="http://sodipodi.sourceforge.net/DTD/sodipodi-0.dtd"
   xmlns="http://www.w3.org/2000/svg"
   xmlns:svg="http://www.w3.org/2000/svg">
  <sodipodi:namedview
     id="namedview18"
     pagecolor="#ffffff"
     bordercolor="#999999"
     borderopacity="1"
     inkscape:pageshadow="0"
     inkscape:pageopacity="0"
     inkscape:pagecheckerboard="0"
     showgrid="false"
     inkscape:zoom="17.05"
     inkscape:cx="19.970674"
     inkscape:cy="20"
     inkscape:window-width="1920"
     inkscape:window-height="1000"
     inkscape:window-x="-11"
     inkscape:window-y="1069"
     inkscape:window-maximized="1"
     inkscape:current-layer="svg16" />
  <defs
     id="defs4">
    <style
       id="style2">.cls-1{fill:#4d4d4d;}.cls-2{fill:#1a1a1a;}.cls-3{fill:#333;}.cls-4{fill:#666;}.cls-5{fill:#fff;}</style>
  </defs>
  <path
     class="cls-1"
     d="M 14.16,7.18 H 32.82 A 1.12,1.12 0 0 1 33.65,7.54 1.24,1.24 0 0 1 34,8.4 v 23.14 a 1.24,1.24 0 0 1 -0.34,0.86 1.12,1.12 0 0 1 -0.83,0.36 H 14.16 A 1.18,1.18 0 0 1 13,31.56 v 0 V 8.4 a 1.19,1.19 0 0 1 1.15,-1.22 z"
     id="Path-47"
     style="fill:#f9f9f9" />
  <path
     class="cls-2"
     d="m 13,20 v 11.58 a 1.19,1.19 0 0 0 1.12,1.24 h 18.7 A 1.19,1.19 0 0 0 34,31.61 v 0 V 20 Z"
     id="Path-48"
     style="fill:#e6e6e6" />
  <path
     class="cls-3"
     d="M 13,13.58 H 34 V 20 H 13 Z"
     id="Rectangle-12"
     style="fill:#f2f2f2" />
  <path
     class="cls-4"
     d="M 32.82,7.18 H 23.5 V 26.37 H 34 V 8.4 A 1.24,1.24 0 0 0 33.66,7.54 1.12,1.12 0 0 0 32.82,7.18 Z"
     id="Path-49"
     style="fill:#ffffff" />
  <path
     class="cls-1"
     d="M 23.5,13.58 H 34 V 20 H 23.5 Z"
     id="Rectangle-13"
     style="fill:#f9f9f9" />
  <path
     class="cls-3"
     d="M 23.5,20 H 34 v 6.4 H 23.5 Z"
     id="Rectangle-14"
     style="fill:#f2f2f2" />
  <path
     id="Back_Plate-3"
     style="fill:#f9f9f9;fill-opacity:1"
     d="m 3.3576052,12.660156 a 1.21,1.21 0 0 0 -1.1699219,1.230469 v 12.208984 a 1.19,1.19 0 0 0 1.1699219,1.210938 H 15.037292 a 1.21,1.21 0 0 0 1.150391,-1.25 V 13.890625 a 1.21,1.21 0 0 0 -1.169922,-1.230469 z m 2.2304687,2.970703 h 2.0000004 l 1.36914,2.830079 c 0.1,0.21 0.189531,0.408906 0.269531,0.628906 a 5.11,5.11 0 0 1 0.291016,-0.628906 L 10.96698,15.650391 h 1.861328 l -2.560547,4.410156 2.650391,4.46875 h -2 L 9.3185423,21.449219 c -0.07,-0.13 -0.131406,-0.270157 -0.191406,-0.410157 a 2.09,2.09 0 0 1 -0.189453,0.400391 l -1.630859,3.111328 -1.9394535,-0.01172 2.7500005,-4.478515 z" />
</svg>
