<?xml version="1.0" encoding="UTF-8" standalone="no"?>
<svg
   width="24"
   height="24"
   fill-rule="evenodd"
   clip-rule="evenodd"
   version="1.1"
   id="svg4"
   sodipodi:docname="iconmonstr-customer-2.svg"
   inkscape:version="1.1 (c68e22c387, 2021-05-23)"
   xmlns:inkscape="http://www.inkscape.org/namespaces/inkscape"
   xmlns:sodipodi="http://sodipodi.sourceforge.net/DTD/sodipodi-0.dtd"
   xmlns="http://www.w3.org/2000/svg"
   xmlns:svg="http://www.w3.org/2000/svg">
  <defs
     id="defs8" />
  <sodipodi:namedview
     id="namedview6"
     pagecolor="#ffffff"
     bordercolor="#999999"
     borderopacity="1"
     inkscape:pageshadow="0"
     inkscape:pageopacity="0"
     inkscape:pagecheckerboard="0"
     showgrid="false"
     inkscape:zoom="28.416667"
     inkscape:cx="11.982405"
     inkscape:cy="12"
     inkscape:window-width="1920"
     inkscape:window-height="1000"
     inkscape:window-x="-11"
     inkscape:window-y="1069"
     inkscape:window-maximized="1"
     inkscape:current-layer="svg4" />
  <path
     d="M0 23v-10.668c0-.99.082-1.952 1.324-2.223 1.433-.312 2.768-.586 2.121-1.736-1.966-3.501-.521-5.373 1.555-5.373 2.117 0 3.527 1.944 1.556 5.373-.311.541-.175.888.201 1.136.225-.208.528-.367.934-.461 1.684-.389 3.344-.736 2.545-2.209-2.366-4.364-.674-6.839 1.866-6.839 2.491 0 4.226 2.383 1.866 6.839-.775 1.464.826 1.812 2.545 2.209.352.081.627.212.84.38.29-.242.369-.571.091-1.055-1.971-3.429-.561-5.373 1.556-5.373 2.076 0 3.521 1.872 1.555 5.373-.647 1.15.688 1.424 2.121 1.736 1.242.271 1.324 1.233 1.324 2.223v10.668c0 .552-.448 1-1 1h-22c-.552 0-1-.448-1-1zm23-8h-22v8h22v-8zm-18.193 1l-.976 2.014-2.217.305 1.615 1.552-.395 2.204 1.973-1.057 1.973 1.056-.393-2.203 1.613-1.552-2.217-.305-.976-2.014zm7.193 0l-.976 2.014-2.217.305 1.615 1.552-.395 2.204 1.973-1.057 1.973 1.056-.393-2.203 1.613-1.552-2.217-.305-.976-2.014zm7.193 0l-.976 2.014-2.217.305 1.615 1.552-.395 2.204 1.973-1.057 1.973 1.056-.393-2.203 1.613-1.552-2.217-.305-.976-2.014zm-14.886 3.52l-.512-.491.702-.097.31-.639.31.639.703.097-.511.491.125.699-.627-.335-.625.334.125-.698zm7.193 0l-.512-.491.702-.097.31-.639.31.639.703.097-.511.491.125.699-.627-.335-.625.334.125-.698zm7.193 0l-.512-.491.702-.097.31-.639.31.639.703.097-.511.491.125.699-.627-.335-.625.334.125-.698zm-12.589-5.52l-.001-2.126c0-.526.018-1.046.147-1.498-.319-.199-.573-.458-.729-.811-.16-.36-.261-.945.168-1.69.792-1.379 1.019-2.564.622-3.251-.487-.84-2.13-.831-2.608-.014-.397.679-.174 1.871.614 3.273.419.747.316 1.33.156 1.688-.229.509-.535.987-2.936 1.516-.369.08-.537.116-.537 1.245l.001 1.668h5.103zm10.998 0v-2.122c0-1.438-.193-1.713-.813-1.856-2.746-.633-3.098-1.172-3.359-1.744-.181-.395-.301-1.048.154-1.907 1.022-1.929 1.278-3.582.703-4.538-.672-1.115-2.704-1.125-3.384.017-.577.969-.318 2.613.712 4.512.465.857.348 1.51.169 1.909-.491 1.088-1.838 1.399-3.265 1.727-.829.196-.916.587-.916 1.876l.001 2.126h9.998zm5.897 0l.001-1.668c0-1.129-.168-1.165-.537-1.245-2.401-.529-2.707-1.007-2.936-1.516-.16-.358-.263-.941.156-1.688.788-1.402 1.011-2.594.614-3.273-.478-.817-2.121-.826-2.608.014-.397.687-.17 1.872.622 3.251.429.745.328 1.33.168 1.69-.127.288-.32.513-.559.695.162.478.182 1.044.182 1.618v2.122h4.897z"
     id="path2"
     style="fill:#ffffff;opacity:0.7147651" />
</svg>
