<?xml version="1.0" encoding="UTF-8" standalone="no"?>
<svg
   width="24"
   height="24"
   viewBox="0 0 24 24"
   version="1.1"
   id="svg4"
   sodipodi:docname="iconmonstr-basket-18.svg"
   inkscape:version="1.1 (c68e22c387, 2021-05-23)"
   xmlns:inkscape="http://www.inkscape.org/namespaces/inkscape"
   xmlns:sodipodi="http://sodipodi.sourceforge.net/DTD/sodipodi-0.dtd"
   xmlns="http://www.w3.org/2000/svg"
   xmlns:svg="http://www.w3.org/2000/svg">
  <defs
     id="defs8" />
  <sodipodi:namedview
     id="namedview6"
     pagecolor="#ffffff"
     bordercolor="#999999"
     borderopacity="1"
     inkscape:pageshadow="0"
     inkscape:pageopacity="0"
     inkscape:pagecheckerboard="0"
     showgrid="false"
     inkscape:zoom="28.416667"
     inkscape:cx="11.982405"
     inkscape:cy="12"
     inkscape:window-width="1920"
     inkscape:window-height="1000"
     inkscape:window-x="-11"
     inkscape:window-y="1069"
     inkscape:window-maximized="1"
     inkscape:current-layer="svg4" />
  <path
     d="M13.299 3.74c-.207-.206-.299-.461-.299-.711 0-.524.407-1.029 1.02-1.029.262 0 .522.1.721.298l3.783 3.783c-.771.117-1.5.363-2.158.726l-3.067-3.067zm3.92 14.84l-.571 1.42h-9.296l-3.597-8.961-.016-.039h9.441c.171-.721.46-1.395.848-2h-14.028v2h.643c.535 0 1.021.304 1.256.784l4.101 10.216h12l1.211-3.015c-.699-.03-1.368-.171-1.992-.405zm-6.518-14.84c.207-.206.299-.461.299-.711 0-.524-.407-1.029-1.02-1.029-.261 0-.522.1-.72.298l-4.701 4.702h2.883l3.259-3.26zm8.799 4.26c-2.486 0-4.5 2.015-4.5 4.5s2.014 4.5 4.5 4.5c2.484 0 4.5-2.015 4.5-4.5s-2.016-4.5-4.5-4.5zm-.469 6.484l-1.688-1.637.695-.697.992.94 2.115-2.169.697.696-2.811 2.867z"
     id="path2"
     style="fill:#ffffff;opacity:0.7147651" />
</svg>
