<?xml version="1.0" encoding="UTF-8" standalone="no"?>
<svg
   width="24"
   height="24"
   viewBox="0 0 24 24"
   version="1.1"
   id="svg4"
   sodipodi:docname="iconmonstr-basket-18.svg"
   inkscape:version="1.1 (c68e22c387, 2021-05-23)"
   xmlns:inkscape="http://www.inkscape.org/namespaces/inkscape"
   xmlns:sodipodi="http://sodipodi.sourceforge.net/DTD/sodipodi-0.dtd"
   xmlns="http://www.w3.org/2000/svg"
   xmlns:svg="http://www.w3.org/2000/svg">
  <defs
     id="defs8" />
  <sodipodi:namedview
     id="namedview6"
     pagecolor="#ffffff"
     bordercolor="#999999"
     borderopacity="1"
     inkscape:pageshadow="0"
     inkscape:pageopacity="0"
     inkscape:pagecheckerboard="0"
     showgrid="false"
     inkscape:zoom="28.416667"
     inkscape:cx="12.017595"
     inkscape:cy="12"
     inkscape:window-width="1920"
     inkscape:window-height="1000"
     inkscape:window-x="-11"
     inkscape:window-y="1069"
     inkscape:window-maximized="1"
     inkscape:current-layer="svg4" />
  <path
     d="M 13.299,3.8918281 C 13.092,3.6678529 13,3.3906024 13,3.1187879 13,2.5490651 13.407,2 14.02,2 c 0.262,0 0.522,0.1087258 0.721,0.3240028 l 3.783,4.113095 c -0.771,0.1272091 -1.5,0.3946745 -2.158,0.789349 z m 3.92,16.1349009 -0.571,1.543906 H 7.352 l -3.597,-9.742914 -0.016,-0.0424 h 9.441 c 0.171,-0.783913 0.46,-1.516724 0.848,-2.1745146 H 0 v 2.1745146 h 0.643 c 0.535,0 1.021,0.330526 1.256,0.85241 L 6,23.74515 h 12 l 1.211,-3.27808 C 18.512,20.43446 17.843,20.281147 17.219,20.026729 Z M 10.701,3.8918281 C 10.908,3.6678529 11,3.3906024 11,3.1187879 11,2.5490651 10.593,2 9.98,2 9.719,2 9.458,2.1087258 9.26,2.3240028 L 4.559,7.4362874 H 7.442 Z M 19.5,8.523545 c -2.486,0 -4.5,2.190825 -4.5,4.892658 0,2.701835 2.014,4.892659 4.5,4.892659 2.484,0 4.5,-2.190824 4.5,-4.892659 0,-2.701833 -2.016,-4.892658 -4.5,-4.892658 z m -0.469,7.049778 -1.688,-1.77984 0.695,-0.757819 0.992,1.022022 2.115,-2.358262 0.697,0.756732 z"
     id="path2"
     style="opacity:0.714765;fill:#ffffff;stroke-width:1.04271" />
</svg>
