<?xml version="1.0" encoding="UTF-8" standalone="no"?>
<svg
   style="enable-background:new 0 0 24 24;"
   version="1.1"
   viewBox="0 0 24 24"
   xml:space="preserve"
   id="svg9"
   sodipodi:docname="1564506_close_exit_logout_power_icon.svg"
   inkscape:version="1.1 (c68e22c387, 2021-05-23)"
   xmlns:inkscape="http://www.inkscape.org/namespaces/inkscape"
   xmlns:sodipodi="http://sodipodi.sourceforge.net/DTD/sodipodi-0.dtd"
   xmlns="http://www.w3.org/2000/svg"
   xmlns:svg="http://www.w3.org/2000/svg"><defs
     id="defs13" /><sodipodi:namedview
     id="namedview11"
     pagecolor="#ffffff"
     bordercolor="#999999"
     borderopacity="1"
     inkscape:pageshadow="0"
     inkscape:pageopacity="0"
     inkscape:pagecheckerboard="0"
     showgrid="false"
     inkscape:zoom="28.416667"
     inkscape:cx="12.017595"
     inkscape:cy="12.017595"
     inkscape:window-width="1646"
     inkscape:window-height="847"
     inkscape:window-x="1909"
     inkscape:window-y="-11"
     inkscape:window-maximized="1"
     inkscape:current-layer="svg9" /><g
     id="info" /><g
     id="icons"
     style="fill:#30397e;fill-opacity:1.0"><g
       id="exit2"
       style="fill:#30397e;fill-opacity:1.0"><path
         d="M12,10c1.1,0,2-0.9,2-2V4c0-1.1-0.9-2-2-2s-2,0.9-2,2v4C10,9.1,10.9,10,12,10z"
         id="path3"
         style="fill:#30397e;fill-opacity:1.0" /><path
         d="M19.1,4.9L19.1,4.9c-0.3-0.3-0.6-0.4-1.1-0.4c-0.8,0-1.5,0.7-1.5,1.5c0,0.4,0.2,0.8,0.4,1.1l0,0c0,0,0,0,0,0c0,0,0,0,0,0    c1.3,1.3,2,3,2,4.9c0,3.9-3.1,7-7,7s-7-3.1-7-7c0-1.9,0.8-3.7,2.1-4.9l0,0C7.3,6.8,7.5,6.4,7.5,6c0-0.8-0.7-1.5-1.5-1.5    c-0.4,0-0.8,0.2-1.1,0.4l0,0C3.1,6.7,2,9.2,2,12c0,5.5,4.5,10,10,10s10-4.5,10-10C22,9.2,20.9,6.7,19.1,4.9z"
         id="path5"
         style="fill:#30397e;fill-opacity:1.0" /></g></g></svg>
