<?xml version="1.0" encoding="UTF-8" standalone="no"?>
<svg
   height="6.82666in"
   style="shape-rendering:geometricPrecision; text-rendering:geometricPrecision; image-rendering:optimizeQuality; fill-rule:evenodd; clip-rule:evenodd"
   viewBox="0 0 6.82666 6.82666"
   width="6.82666in"
   xml:space="preserve"
   version="1.1"
   id="svg16"
   sodipodi:docname="2102050_calendar_interface_year_icon.svg"
   inkscape:version="1.1 (c68e22c387, 2021-05-23)"
   xmlns:inkscape="http://www.inkscape.org/namespaces/inkscape"
   xmlns:sodipodi="http://sodipodi.sourceforge.net/DTD/sodipodi-0.dtd"
   xmlns="http://www.w3.org/2000/svg"
   xmlns:svg="http://www.w3.org/2000/svg"><sodipodi:namedview
     id="namedview18"
     pagecolor="#ffffff"
     bordercolor="#999999"
     borderopacity="1"
     inkscape:pageshadow="0"
     inkscape:pageopacity="0"
     inkscape:pagecheckerboard="0"
     inkscape:document-units="in"
     showgrid="false"
     inkscape:zoom="1.0406504"
     inkscape:cx="328.16016"
     inkscape:cy="328.16016"
     inkscape:window-width="1646"
     inkscape:window-height="847"
     inkscape:window-x="1909"
     inkscape:window-y="-11"
     inkscape:window-maximized="1"
     inkscape:current-layer="svg16" /><defs
     id="defs4"><style
       type="text/css"
       id="style2">
   <![CDATA[
    .fil2 {fill:none}
    .fil1 {fill:black}
    .fil0 {fill:black;fill-rule:nonzero}
   ]]>
  </style></defs><g
     id="Layer_x0020_1"
     style="fill:#30397e;fill-opacity:1.0"><g
       id="_306569232"
       style="fill:#30397e;fill-opacity:1.0"><path
         class="fil0"
         d="M1.82243 0.937913c0,-0.0220906 -0.0179094,-0.04 -0.04,-0.04 -0.0220906,0 -0.04,0.0179094 -0.04,0.04l0 0.816382c0,0.0220906 0.0179094,0.04 0.04,0.04 0.0220906,0 0.04,-0.0179094 0.04,-0.04l0 -0.816382z"
         id="_306569424"
         style="fill:#30397e;fill-opacity:1.0" /><path
         class="fil0"
         d="M5.08424 0.937913c0,-0.0220906 -0.0179094,-0.04 -0.04,-0.04 -0.0220906,0 -0.04,0.0179094 -0.04,0.04l0 0.816382c0,0.0220906 0.0179094,0.04 0.04,0.04 0.0220906,0 0.04,-0.0179094 0.04,-0.04l0 -0.816382z"
         id="_306569688"
         style="fill:#30397e;fill-opacity:1.0" /></g><path
       class="fil1"
       d="M6.03771 2.5518l-5.24876 0 0 3.22374c0,0.0997362 0.0407441,0.190354 0.106382,0.255988 0.0656339,0.0656378 0.156252,0.106382 0.255988,0.106382l4.52402 0c0.0997362,0 0.190354,-0.0407441 0.255988,-0.106382 0.0656378,-0.0656339 0.106382,-0.156252 0.106382,-0.255988l0 -3.22374zm-2.96137 0.414689l0.673992 0 0 0.457886 -0.673992 0 0 -0.457886zm1.61162 0l0.673988 0 0 0.457886 -0.673988 0 0 -0.457886zm-3.22323 1.08943l0.673988 0 0 0.457882 -0.673988 0 0 -0.457882zm1.61161 0l0.673992 0 0 0.457882 -0.673992 0 0 -0.457882zm1.61162 0l0.673988 0 0 0.457882 -0.673988 0 0 -0.457882zm-3.22323 1.08942l0.673988 0 0 0.457886 -0.673988 0 0 -0.457886zm1.61161 0l0.673992 0 0 0.457886 -0.673992 0 0 -0.457886zm1.61162 0l0.673988 0 0 0.457886 -0.673988 0 0 -0.457886z"
       id="path9"
       style="fill:#30397e;fill-opacity:1.0" /><path
       class="fil1"
       d="M0.788953 2.4718l5.24876 0 0 -0.843327c0,-0.0997362 -0.0407441,-0.190354 -0.106382,-0.255988 -0.0656339,-0.0656378 -0.156252,-0.106382 -0.255988,-0.106382l-0.511098 0 0 0.488193c0,0.0662441 -0.053752,0.119996 -0.119996,0.119996 -0.0662441,0 -0.119996,-0.053752 -0.119996,-0.119996l0 -0.488193 -3.02183 0 0 0.488193c0,0.0662441 -0.053752,0.119996 -0.119996,0.119996 -0.0662441,0 -0.119996,-0.053752 -0.119996,-0.119996l0 -0.488193 -0.511106 0c-0.0997362,0 -0.190354,0.0407441 -0.255988,0.106382 -0.0656378,0.0656339 -0.106382,0.156252 -0.106382,0.255988l0 0.843327z"
       id="path11"
       style="fill:#30397e;fill-opacity:1.0" /></g><rect
     class="fil2"
     height="6.82666"
     width="6.82666"
     id="rect14" /></svg>
